<?xml version="1.0" encoding="utf-8"?><svg width="4120" height="3120" style="overflow:visible " version="1.1" xmlns="http://www.w3.org/2000/svg"><rect x="20" y="20" width="200" height="40" style="fill:white;stroke:black;stroke-width:1" /><text x="30" y="30" font-size="10" style="fill:blue">xs:schema</text><text x="30" y="40" font-size="8" style="fill:black">xmlns:xs: http://www.w3.org/2001/XMLSchema</text><rect x="240" y="20" width="200" height="40" style="fill:white;stroke:black;stroke-width:1" /><text x="250" y="30" font-size="10" style="fill:blue">xs:element</text><path d="M220 40 C240 40 220 40 240 40" style="fill:transparent;stroke:black" /><text x="250" y="40" font-size="8" style="fill:black">name: circuito</text><rect x="460" y="20" width="200" height="40" style="fill:white;stroke:black;stroke-width:1" /><text x="470" y="30" font-size="10" style="fill:blue">xs:complexType</text><path d="M440 40 C460 40 440 40 460 40" style="fill:transparent;stroke:black" /><rect x="680" y="20" width="200" height="40" style="fill:white;stroke:black;stroke-width:1" /><text x="690" y="30" font-size="10" style="fill:blue">xs:sequence</text><path d="M660 40 C680 40 660 40 680 40" style="fill:transparent;stroke:black" /><rect x="900" y="20" width="200" height="40" style="fill:white;stroke:black;stroke-width:1" /><text x="910" y="30" font-size="10" style="fill:blue">xs:element</text><path d="M880 40 C900 40 880 40 900 40" style="fill:transparent;stroke:black" /><text x="910" y="40" font-size="8" style="fill:black">name: nombre</text><text x="910" y="50" font-size="8" style="fill:black">type: xs:string</text><rect x="900" y="70" width="200" height="40" style="fill:white;stroke:black;stroke-width:1" /><text x="910" y="80" font-size="10" style="fill:blue">xs:element</text><path d="M880 40 C900 40 880 90 900 90" style="fill:transparent;stroke:black" /><text x="910" y="90" font-size="8" style="fill:black">name: longitud_circuito</text><rect x="1120" y="70" width="200" height="40" style="fill:white;stroke:black;stroke-width:1" /><text x="1130" y="80" font-size="10" style="fill:blue">xs:complexType</text><path d="M1100 90 C1120 90 1100 90 1120 90" style="fill:transparent;stroke:black" /><rect x="1340" y="70" width="200" height="40" style="fill:white;stroke:black;stroke-width:1" /><text x="1350" y="80" font-size="10" style="fill:blue">xs:simpleContent</text><path d="M1320 90 C1340 90 1320 90 1340 90" style="fill:transparent;stroke:black" /><rect x="1560" y="70" width="200" height="40" style="fill:white;stroke:black;stroke-width:1" /><text x="1570" y="80" font-size="10" style="fill:blue">xs:extension</text><path d="M1540 90 C1560 90 1540 90 1560 90" style="fill:transparent;stroke:black" /><text x="1570" y="90" font-size="8" style="fill:black">base: xs:float</text><rect x="1780" y="70" width="200" height="40" style="fill:white;stroke:black;stroke-width:1" /><text x="1790" y="80" font-size="10" style="fill:blue">xs:attribute</text><path d="M1760 90 C1780 90 1760 90 1780 90" style="fill:transparent;stroke:black" /><text x="1790" y="90" font-size="8" style="fill:black">name: unidad</text><text x="1790" y="100" font-size="8" style="fill:black">type: xs:string</text><text x="1790" y="110" font-size="8" style="fill:black">use: required</text><rect x="900" y="320" width="200" height="40" style="fill:white;stroke:black;stroke-width:1" /><text x="910" y="330" font-size="10" style="fill:blue">xs:element</text><path d="M880 40 C900 40 880 340 900 340" style="fill:transparent;stroke:black" /><text x="910" y="340" font-size="8" style="fill:black">name: anchura_media</text><rect x="1120" y="320" width="200" height="40" style="fill:white;stroke:black;stroke-width:1" /><text x="1130" y="330" font-size="10" style="fill:blue">xs:complexType</text><path d="M1100 340 C1120 340 1100 340 1120 340" style="fill:transparent;stroke:black" /><rect x="1340" y="320" width="200" height="40" style="fill:white;stroke:black;stroke-width:1" /><text x="1350" y="330" font-size="10" style="fill:blue">xs:simpleContent</text><path d="M1320 340 C1340 340 1320 340 1340 340" style="fill:transparent;stroke:black" /><rect x="1560" y="320" width="200" height="40" style="fill:white;stroke:black;stroke-width:1" /><text x="1570" y="330" font-size="10" style="fill:blue">xs:extension</text><path d="M1540 340 C1560 340 1540 340 1560 340" style="fill:transparent;stroke:black" /><text x="1570" y="340" font-size="8" style="fill:black">base: xs:float</text><rect x="1780" y="320" width="200" height="40" style="fill:white;stroke:black;stroke-width:1" /><text x="1790" y="330" font-size="10" style="fill:blue">xs:attribute</text><path d="M1760 340 C1780 340 1760 340 1780 340" style="fill:transparent;stroke:black" /><text x="1790" y="340" font-size="8" style="fill:black">name: unidad</text><text x="1790" y="350" font-size="8" style="fill:black">type: xs:string</text><text x="1790" y="360" font-size="8" style="fill:black">use: required</text><rect x="900" y="570" width="200" height="40" style="fill:white;stroke:black;stroke-width:1" /><text x="910" y="580" font-size="10" style="fill:blue">xs:element</text><path d="M880 40 C900 40 880 590 900 590" style="fill:transparent;stroke:black" /><text x="910" y="590" font-size="8" style="fill:black">name: fecha_carrera</text><text x="910" y="600" font-size="8" style="fill:black">type: xs:date</text><rect x="900" y="620" width="200" height="40" style="fill:white;stroke:black;stroke-width:1" /><text x="910" y="630" font-size="10" style="fill:blue">xs:element</text><path d="M880 40 C900 40 880 640 900 640" style="fill:transparent;stroke:black" /><text x="910" y="640" font-size="8" style="fill:black">name: hora_inicio</text><text x="910" y="650" font-size="8" style="fill:black">type: xs:time</text><rect x="900" y="670" width="200" height="40" style="fill:white;stroke:black;stroke-width:1" /><text x="910" y="680" font-size="10" style="fill:blue">xs:element</text><path d="M880 40 C900 40 880 690 900 690" style="fill:transparent;stroke:black" /><text x="910" y="690" font-size="8" style="fill:black">name: vueltas</text><rect x="1120" y="670" width="200" height="40" style="fill:white;stroke:black;stroke-width:1" /><text x="1130" y="680" font-size="10" style="fill:blue">xs:simpleType</text><path d="M1100 690 C1120 690 1100 690 1120 690" style="fill:transparent;stroke:black" /><rect x="1340" y="670" width="200" height="40" style="fill:white;stroke:black;stroke-width:1" /><text x="1350" y="680" font-size="10" style="fill:blue">xs:restriction</text><path d="M1320 690 C1340 690 1320 690 1340 690" style="fill:transparent;stroke:black" /><text x="1350" y="690" font-size="8" style="fill:black">base: xs:positiveInteger</text><rect x="1560" y="670" width="200" height="40" style="fill:white;stroke:black;stroke-width:1" /><text x="1570" y="680" font-size="10" style="fill:blue">xs:minInclusive</text><path d="M1540 690 C1560 690 1540 690 1560 690" style="fill:transparent;stroke:black" /><text x="1570" y="690" font-size="8" style="fill:black">value: 1</text><rect x="1560" y="720" width="200" height="40" style="fill:white;stroke:black;stroke-width:1" /><text x="1570" y="730" font-size="10" style="fill:blue">xs:maxInclusive</text><path d="M1540 690 C1560 690 1540 740 1560 740" style="fill:transparent;stroke:black" /><text x="1570" y="740" font-size="8" style="fill:black">value: 200</text><rect x="900" y="920" width="200" height="40" style="fill:white;stroke:black;stroke-width:1" /><text x="910" y="930" font-size="10" style="fill:blue">xs:element</text><path d="M880 40 C900 40 880 940 900 940" style="fill:transparent;stroke:black" /><text x="910" y="940" font-size="8" style="fill:black">name: localidad</text><text x="910" y="950" font-size="8" style="fill:black">type: xs:string</text><rect x="900" y="970" width="200" height="40" style="fill:white;stroke:black;stroke-width:1" /><text x="910" y="980" font-size="10" style="fill:blue">xs:element</text><path d="M880 40 C900 40 880 990 900 990" style="fill:transparent;stroke:black" /><text x="910" y="990" font-size="8" style="fill:black">name: pais</text><text x="910" y="1000" font-size="8" style="fill:black">type: xs:string</text><rect x="900" y="1020" width="200" height="40" style="fill:white;stroke:black;stroke-width:1" /><text x="910" y="1030" font-size="10" style="fill:blue">xs:element</text><path d="M880 40 C900 40 880 1040 900 1040" style="fill:transparent;stroke:black" /><text x="910" y="1040" font-size="8" style="fill:black">name: referencias</text><rect x="1120" y="1020" width="200" height="40" style="fill:white;stroke:black;stroke-width:1" /><text x="1130" y="1030" font-size="10" style="fill:blue">xs:complexType</text><path d="M1100 1040 C1120 1040 1100 1040 1120 1040" style="fill:transparent;stroke:black" /><rect x="1340" y="1020" width="200" height="40" style="fill:white;stroke:black;stroke-width:1" /><text x="1350" y="1030" font-size="10" style="fill:blue">xs:sequence</text><path d="M1320 1040 C1340 1040 1320 1040 1340 1040" style="fill:transparent;stroke:black" /><rect x="1560" y="1020" width="200" height="40" style="fill:white;stroke:black;stroke-width:1" /><text x="1570" y="1030" font-size="10" style="fill:blue">xs:element</text><path d="M1540 1040 C1560 1040 1540 1040 1560 1040" style="fill:transparent;stroke:black" /><text x="1570" y="1040" font-size="8" style="fill:black">name: referencia</text><text x="1570" y="1050" font-size="8" style="fill:black">type: xs:anyURI</text><text x="1570" y="1060" font-size="8" style="fill:black">maxOccurs: unbounded</text><rect x="900" y="1220" width="200" height="40" style="fill:white;stroke:black;stroke-width:1" /><text x="910" y="1230" font-size="10" style="fill:blue">xs:element</text><path d="M880 40 C900 40 880 1240 900 1240" style="fill:transparent;stroke:black" /><text x="910" y="1240" font-size="8" style="fill:black">name: galeria_fotografias</text><rect x="1120" y="1220" width="200" height="40" style="fill:white;stroke:black;stroke-width:1" /><text x="1130" y="1230" font-size="10" style="fill:blue">xs:complexType</text><path d="M1100 1240 C1120 1240 1100 1240 1120 1240" style="fill:transparent;stroke:black" /><rect x="1340" y="1220" width="200" height="40" style="fill:white;stroke:black;stroke-width:1" /><text x="1350" y="1230" font-size="10" style="fill:blue">xs:sequence</text><path d="M1320 1240 C1340 1240 1320 1240 1340 1240" style="fill:transparent;stroke:black" /><rect x="1560" y="1220" width="200" height="40" style="fill:white;stroke:black;stroke-width:1" /><text x="1570" y="1230" font-size="10" style="fill:blue">xs:element</text><path d="M1540 1240 C1560 1240 1540 1240 1560 1240" style="fill:transparent;stroke:black" /><text x="1570" y="1240" font-size="8" style="fill:black">name: fotografia</text><text x="1570" y="1250" font-size="8" style="fill:black">type: xs:string</text><text x="1570" y="1260" font-size="8" style="fill:black">maxOccurs: unbounded</text><rect x="900" y="1420" width="200" height="40" style="fill:white;stroke:black;stroke-width:1" /><text x="910" y="1430" font-size="10" style="fill:blue">xs:element</text><path d="M880 40 C900 40 880 1440 900 1440" style="fill:transparent;stroke:black" /><text x="910" y="1440" font-size="8" style="fill:black">name: galeria_videos</text><text x="910" y="1450" font-size="8" style="fill:black">minOccurs: 0</text><rect x="1120" y="1420" width="200" height="40" style="fill:white;stroke:black;stroke-width:1" /><text x="1130" y="1430" font-size="10" style="fill:blue">xs:complexType</text><path d="M1100 1440 C1120 1440 1100 1440 1120 1440" style="fill:transparent;stroke:black" /><rect x="1340" y="1420" width="200" height="40" style="fill:white;stroke:black;stroke-width:1" /><text x="1350" y="1430" font-size="10" style="fill:blue">xs:sequence</text><path d="M1320 1440 C1340 1440 1320 1440 1340 1440" style="fill:transparent;stroke:black" /><rect x="1560" y="1420" width="200" height="40" style="fill:white;stroke:black;stroke-width:1" /><text x="1570" y="1430" font-size="10" style="fill:blue">xs:element</text><path d="M1540 1440 C1560 1440 1540 1440 1560 1440" style="fill:transparent;stroke:black" /><text x="1570" y="1440" font-size="8" style="fill:black">name: video</text><text x="1570" y="1450" font-size="8" style="fill:black">type: xs:string</text><text x="1570" y="1460" font-size="8" style="fill:black">maxOccurs: unbounded</text><rect x="900" y="1620" width="200" height="40" style="fill:white;stroke:black;stroke-width:1" /><text x="910" y="1630" font-size="10" style="fill:blue">xs:element</text><path d="M880 40 C900 40 880 1640 900 1640" style="fill:transparent;stroke:black" /><text x="910" y="1640" font-size="8" style="fill:black">name: coordenadas</text><rect x="1120" y="1620" width="200" height="40" style="fill:white;stroke:black;stroke-width:1" /><text x="1130" y="1630" font-size="10" style="fill:blue">xs:complexType</text><path d="M1100 1640 C1120 1640 1100 1640 1120 1640" style="fill:transparent;stroke:black" /><rect x="1340" y="1620" width="200" height="40" style="fill:white;stroke:black;stroke-width:1" /><text x="1350" y="1630" font-size="10" style="fill:blue">xs:sequence</text><path d="M1320 1640 C1340 1640 1320 1640 1340 1640" style="fill:transparent;stroke:black" /><rect x="1560" y="1620" width="200" height="40" style="fill:white;stroke:black;stroke-width:1" /><text x="1570" y="1630" font-size="10" style="fill:blue">xs:element</text><path d="M1540 1640 C1560 1640 1540 1640 1560 1640" style="fill:transparent;stroke:black" /><text x="1570" y="1640" font-size="8" style="fill:black">name: longitud_geo</text><text x="1570" y="1650" font-size="8" style="fill:black">type: xs:float</text><rect x="1560" y="1670" width="200" height="40" style="fill:white;stroke:black;stroke-width:1" /><text x="1570" y="1680" font-size="10" style="fill:blue">xs:element</text><path d="M1540 1640 C1560 1640 1540 1690 1560 1690" style="fill:transparent;stroke:black" /><text x="1570" y="1690" font-size="8" style="fill:black">name: latitud_geo</text><text x="1570" y="1700" font-size="8" style="fill:black">type: xs:float</text><rect x="1560" y="1720" width="200" height="40" style="fill:white;stroke:black;stroke-width:1" /><text x="1570" y="1730" font-size="10" style="fill:blue">xs:element</text><path d="M1540 1640 C1560 1640 1540 1740 1560 1740" style="fill:transparent;stroke:black" /><text x="1570" y="1740" font-size="8" style="fill:black">name: altitud</text><rect x="1780" y="1720" width="200" height="40" style="fill:white;stroke:black;stroke-width:1" /><text x="1790" y="1730" font-size="10" style="fill:blue">xs:complexType</text><path d="M1760 1740 C1780 1740 1760 1740 1780 1740" style="fill:transparent;stroke:black" /><rect x="2000" y="1720" width="200" height="40" style="fill:white;stroke:black;stroke-width:1" /><text x="2010" y="1730" font-size="10" style="fill:blue">xs:simpleContent</text><path d="M1980 1740 C2000 1740 1980 1740 2000 1740" style="fill:transparent;stroke:black" /><rect x="2220" y="1720" width="200" height="40" style="fill:white;stroke:black;stroke-width:1" /><text x="2230" y="1730" font-size="10" style="fill:blue">xs:extension</text><path d="M2200 1740 C2220 1740 2200 1740 2220 1740" style="fill:transparent;stroke:black" /><text x="2230" y="1740" font-size="8" style="fill:black">base: xs:float</text><rect x="2440" y="1720" width="200" height="40" style="fill:white;stroke:black;stroke-width:1" /><text x="2450" y="1730" font-size="10" style="fill:blue">xs:attribute</text><path d="M2420 1740 C2440 1740 2420 1740 2440 1740" style="fill:transparent;stroke:black" /><text x="2450" y="1740" font-size="8" style="fill:black">name: unidad</text><text x="2450" y="1750" font-size="8" style="fill:black">type: xs:string</text><text x="2450" y="1760" font-size="8" style="fill:black">use: required</text><rect x="900" y="2120" width="200" height="40" style="fill:white;stroke:black;stroke-width:1" /><text x="910" y="2130" font-size="10" style="fill:blue">xs:element</text><path d="M880 40 C900 40 880 2140 900 2140" style="fill:transparent;stroke:black" /><text x="910" y="2140" font-size="8" style="fill:black">name: tramos</text><rect x="1120" y="2120" width="200" height="40" style="fill:white;stroke:black;stroke-width:1" /><text x="1130" y="2130" font-size="10" style="fill:blue">xs:complexType</text><path d="M1100 2140 C1120 2140 1100 2140 1120 2140" style="fill:transparent;stroke:black" /><rect x="1340" y="2120" width="200" height="40" style="fill:white;stroke:black;stroke-width:1" /><text x="1350" y="2130" font-size="10" style="fill:blue">xs:sequence</text><path d="M1320 2140 C1340 2140 1320 2140 1340 2140" style="fill:transparent;stroke:black" /><rect x="1560" y="2120" width="200" height="40" style="fill:white;stroke:black;stroke-width:1" /><text x="1570" y="2130" font-size="10" style="fill:blue">xs:element</text><path d="M1540 2140 C1560 2140 1540 2140 1560 2140" style="fill:transparent;stroke:black" /><text x="1570" y="2140" font-size="8" style="fill:black">name: tramo</text><text x="1570" y="2150" font-size="8" style="fill:black">minOccurs: 1</text><text x="1570" y="2160" font-size="8" style="fill:black">maxOccurs: unbounded</text><rect x="1780" y="2120" width="200" height="40" style="fill:white;stroke:black;stroke-width:1" /><text x="1790" y="2130" font-size="10" style="fill:blue">xs:complexType</text><path d="M1760 2140 C1780 2140 1760 2140 1780 2140" style="fill:transparent;stroke:black" /><rect x="2000" y="2120" width="200" height="40" style="fill:white;stroke:black;stroke-width:1" /><text x="2010" y="2130" font-size="10" style="fill:blue">xs:sequence</text><path d="M1980 2140 C2000 2140 1980 2140 2000 2140" style="fill:transparent;stroke:black" /><rect x="2220" y="2120" width="200" height="40" style="fill:white;stroke:black;stroke-width:1" /><text x="2230" y="2130" font-size="10" style="fill:blue">xs:element</text><path d="M2200 2140 C2220 2140 2200 2140 2220 2140" style="fill:transparent;stroke:black" /><text x="2230" y="2140" font-size="8" style="fill:black">name: longitud_geo</text><text x="2230" y="2150" font-size="8" style="fill:black">type: xs:float</text><rect x="2220" y="2170" width="200" height="40" style="fill:white;stroke:black;stroke-width:1" /><text x="2230" y="2180" font-size="10" style="fill:blue">xs:element</text><path d="M2200 2140 C2220 2140 2200 2190 2220 2190" style="fill:transparent;stroke:black" /><text x="2230" y="2190" font-size="8" style="fill:black">name: latitud_geo</text><text x="2230" y="2200" font-size="8" style="fill:black">type: xs:float</text><rect x="2220" y="2220" width="200" height="40" style="fill:white;stroke:black;stroke-width:1" /><text x="2230" y="2230" font-size="10" style="fill:blue">xs:element</text><path d="M2200 2140 C2220 2140 2200 2240 2220 2240" style="fill:transparent;stroke:black" /><text x="2230" y="2240" font-size="8" style="fill:black">name: altitud</text><rect x="2440" y="2220" width="200" height="40" style="fill:white;stroke:black;stroke-width:1" /><text x="2450" y="2230" font-size="10" style="fill:blue">xs:complexType</text><path d="M2420 2240 C2440 2240 2420 2240 2440 2240" style="fill:transparent;stroke:black" /><rect x="2660" y="2220" width="200" height="40" style="fill:white;stroke:black;stroke-width:1" /><text x="2670" y="2230" font-size="10" style="fill:blue">xs:simpleContent</text><path d="M2640 2240 C2660 2240 2640 2240 2660 2240" style="fill:transparent;stroke:black" /><rect x="2880" y="2220" width="200" height="40" style="fill:white;stroke:black;stroke-width:1" /><text x="2890" y="2230" font-size="10" style="fill:blue">xs:extension</text><path d="M2860 2240 C2880 2240 2860 2240 2880 2240" style="fill:transparent;stroke:black" /><text x="2890" y="2240" font-size="8" style="fill:black">base: xs:float</text><rect x="3100" y="2220" width="200" height="40" style="fill:white;stroke:black;stroke-width:1" /><text x="3110" y="2230" font-size="10" style="fill:blue">xs:attribute</text><path d="M3080 2240 C3100 2240 3080 2240 3100 2240" style="fill:transparent;stroke:black" /><text x="3110" y="2240" font-size="8" style="fill:black">name: unidad</text><text x="3110" y="2250" font-size="8" style="fill:black">type: xs:string</text><text x="3110" y="2260" font-size="8" style="fill:black">use: required</text><rect x="2220" y="2470" width="200" height="40" style="fill:white;stroke:black;stroke-width:1" /><text x="2230" y="2480" font-size="10" style="fill:blue">xs:element</text><path d="M2200 2140 C2220 2140 2200 2490 2220 2490" style="fill:transparent;stroke:black" /><text x="2230" y="2490" font-size="8" style="fill:black">name: sector</text><text x="2230" y="2500" font-size="8" style="fill:black">type: xs:positiveInteger</text><rect x="2000" y="2570" width="200" height="40" style="fill:white;stroke:black;stroke-width:1" /><text x="2010" y="2580" font-size="10" style="fill:blue">xs:attribute</text><path d="M1980 2140 C2000 2140 1980 2590 2000 2590" style="fill:transparent;stroke:black" /><text x="2010" y="2590" font-size="8" style="fill:black">name: distancia</text><text x="2010" y="2600" font-size="8" style="fill:black">type: xs:float</text><text x="2010" y="2610" font-size="8" style="fill:black">use: required</text><rect x="2000" y="2620" width="200" height="40" style="fill:white;stroke:black;stroke-width:1" /><text x="2010" y="2630" font-size="10" style="fill:blue">xs:attribute</text><path d="M1980 2140 C2000 2140 1980 2640 2000 2640" style="fill:transparent;stroke:black" /><text x="2010" y="2640" font-size="8" style="fill:black">name: unidad</text><text x="2010" y="2650" font-size="8" style="fill:black">type: xs:string</text><text x="2010" y="2660" font-size="8" style="fill:black">use: required</text></svg>